PathFileType	4	(X/Y/Z)	D:\TRACE\v60_Jaco2_6-2-23\JustArmDRS_Motion2_4-platform.trc
DataRate	CameraRate	NumFrames	NumMarkers	Units	OrigDataRate	OrigDataStartFrame	OrigNumFrames
100.00	100.00	      66	5	mm	100.00	1726	      6902
Frame#	Time	Left_Front			Right_Front			Left_Aft			Right_Aft			Post			
		X1	Y1	Z1	X2	Y2	Z2	X3	Y3	Z3	X4	Y4	Z4	X5	Y5	Z5	

1726	17.250	-755.87500	70.96131	-621.50031	814.13477	71.54317	-626.79340	-664.28046	-35.88276	508.90295	778.58527	-38.63552	518.71344	31.07155	1393.98645	-821.46216	
1727	17.260	-756.23718	71.20354	-621.24664	813.70605	71.77161	-626.63837	-664.40094	-36.19383	508.85815	778.35260	-38.96005	518.75018	30.85195	1394.41003	-820.18347	
1728	17.270	-756.61145	71.48039	-621.13983	813.13910	72.02617	-626.55463	-664.84564	-36.57473	508.80304	777.38666	-39.08506	518.71869	30.09383	1394.79541	-818.83069	
1729	17.280	-757.16376	71.64153	-621.00177	812.51904	72.35484	-626.49927	-665.51099	-36.73713	508.80667	776.25848	-39.01905	518.95032	29.64205	1395.10181	-817.79413	
1730	17.290	-758.00995	71.87292	-621.01141	812.09454	72.60159	-626.34143	-665.93372	-36.87638	508.87805	775.99664	-39.16418	519.02911	28.93728	1395.27527	-817.10089	
1731	17.300	-758.61456	71.91536	-620.95630	811.47406	72.72665	-626.29413	-666.76831	-36.92533	508.97284	775.81836	-39.68838	518.83441	28.14745	1395.55237	-816.91998	
1732	17.310	-759.35834	72.07420	-621.05914	810.72217	72.87994	-626.32379	-667.20221	-36.97477	508.97467	774.92084	-39.70232	518.83960	27.62337	1395.79041	-816.97095	
1733	17.320	-759.93500	72.05418	-620.84564	810.01935	72.95171	-626.28113	-667.82953	-37.02884	509.08969	774.51300	-39.80056	518.86035	27.24266	1395.94189	-817.43732	
1734	17.330	-760.34229	72.03661	-620.81378	809.52246	72.97173	-626.27264	-668.70923	-37.08179	509.03571	773.51868	-39.56354	519.15167	26.96260	1395.93921	-817.98840	
1735	17.340	-761.08307	72.13949	-620.70471	808.93481	72.92753	-626.28601	-669.33771	-37.13352	509.03723	773.25690	-39.68813	519.15625	26.24811	1395.90723	-818.51428	
1736	17.350	-761.80725	72.19630	-620.71320	808.19501	72.85343	-626.29572	-669.96826	-36.98690	509.00290	772.52759	-39.68597	519.02423	25.74393	1395.92139	-818.82056	
1737	17.360	-762.57599	72.26067	-620.90686	807.41943	72.84256	-626.30432	-670.69269	-36.83550	509.01633	771.82806	-39.51881	519.08032	24.62632	1395.90356	-819.08112	
1738	17.370	-763.31927	72.10038	-620.96991	806.61591	72.79098	-626.19055	-671.52985	-36.75461	508.95407	771.26904	-39.43517	519.10474	23.83219	1395.73706	-818.65308	
1739	17.380	-763.93488	71.95345	-620.82526	806.01306	72.54848	-626.27722	-672.03918	-36.67021	509.01340	770.35486	-39.47462	519.39581	22.91236	1395.46716	-818.56372	
1740	17.390	-764.49994	71.76042	-620.92322	805.54517	72.53716	-626.34906	-672.76971	-36.62536	509.07690	769.07642	-39.20649	519.33691	22.22927	1395.11584	-818.60559	
1741	17.400	-765.43408	71.64329	-621.00562	804.73175	72.43678	-626.29333	-673.65985	-36.65916	508.99506	768.81049	-39.30547	518.88049	21.58216	1395.02856	-818.70441	
1742	17.410	-766.29596	71.47211	-621.14484	803.50989	71.93560	-626.51324	-674.25677	-36.45094	508.79382	768.15253	-39.17700	518.82977	21.06800	1394.90247	-818.83075	
1743	17.420	-767.13281	71.37645	-621.24963	802.94720	71.88322	-626.57147	-675.10602	-36.21232	508.72260	767.21741	-38.93920	518.73492	19.91887	1394.40210	-819.20251	
1744	17.430	-767.62006	71.05952	-621.39349	802.18384	71.63239	-626.73590	-676.05957	-35.99016	508.73825	765.98456	-38.57612	518.97021	19.06019	1394.01807	-819.98041	
1745	17.440	-768.60248	70.76344	-621.31989	801.56696	71.33534	-626.58600	-676.88257	-35.64939	508.76630	765.47327	-38.41690	518.96326	18.05134	1393.55762	-820.68585	
1746	17.450	-769.61487	70.35389	-621.26691	800.40338	70.82021	-626.80090	-677.58459	-35.57166	508.73166	764.58051	-37.97882	518.74152	17.53960	1393.14734	-822.06140	
1747	17.460	-770.35248	69.82874	-621.75360	799.66223	70.40209	-626.99457	-678.55817	-35.34262	508.74158	764.04736	-37.78790	518.82214	16.76842	1392.66663	-823.35809	
1748	17.470	-771.12097	69.09399	-621.89655	798.97620	70.22801	-627.04126	-679.47461	-34.81995	508.64795	763.34406	-37.37258	518.72778	16.10728	1391.89697	-824.39777	
1749	17.480	-771.95081	68.61835	-621.75140	797.92572	69.57026	-627.28766	-680.28131	-34.43349	508.44128	761.77716	-36.93030	519.14392	15.02925	1391.41956	-825.99658	
1750	17.490	-772.98431	68.17445	-621.79108	796.93280	68.90058	-627.52917	-681.08710	-34.06256	508.49786	760.92310	-36.58386	518.32837	13.82431	1390.77625	-827.19849	
1751	17.500	-773.89374	67.82995	-622.49500	796.28357	68.52148	-627.58978	-682.01819	-33.74672	508.37906	760.47852	-36.16212	518.03528	13.56276	1389.70190	-828.39368	
1752	17.510	-774.88269	67.20557	-622.51361	795.32245	67.87728	-627.62982	-682.85730	-33.37824	508.13947	759.28174	-35.78828	517.86511	12.66691	1389.14905	-829.72571	
1753	17.520	-775.55402	66.67225	-622.64001	794.02423	67.12669	-628.17194	-683.95404	-32.67647	508.09344	758.19342	-35.21490	517.79755	10.98325	1388.33960	-831.37323	
1754	17.530	-776.60907	65.95134	-622.70190	793.39209	66.81866	-628.13403	-684.86371	-32.47995	507.98856	757.25000	-34.94661	517.65198	10.27067	1387.70532	-832.54401	
1755	17.540	-777.87506	65.23997	-622.93066	792.31488	66.05129	-628.47705	-685.65717	-32.03334	507.89731	756.31934	-34.42301	517.57111	9.33165	1386.62720	-833.85834	
1756	17.550	-778.59882	64.67588	-623.50781	791.26398	65.43559	-628.63959	-686.66351	-31.34219	507.71869	755.77155	-33.93256	517.40063	8.61810	1385.90735	-835.57184	
1757	17.560	-779.50104	63.88276	-623.24359	790.24402	64.76746	-628.90326	-687.80896	-30.98498	507.75766	754.64893	-33.38395	517.32739	7.23082	1384.82178	-836.90576	
1758	17.570	-780.56006	63.41653	-623.69592	789.39642	63.75817	-629.17047	-688.62872	-30.49049	507.75772	753.42267	-32.78616	517.36493	6.34702	1384.12634	-838.56897	
1759	17.580	-781.86755	62.64258	-623.98926	788.42786	63.27933	-629.30377	-689.60742	-29.84214	507.52591	752.60760	-32.35450	517.14429	5.22515	1382.93347	-840.10895	
1760	17.590	-782.59210	61.62910	-624.20093	787.19836	62.36327	-629.69702	-690.87018	-29.23113	507.41699	751.50635	-31.75533	516.80023	4.56631	1381.84656	-842.09509	
1761	17.600	-783.42126	60.58828	-624.39819	786.45813	61.72720	-629.76190	-691.66620	-28.81791	507.23877	750.64197	-31.04993	516.68439	3.44507	1380.73877	-844.16925	
1762	17.610	-784.57654	59.88453	-624.62366	785.37201	60.61967	-630.21661	-692.65985	-28.01262	507.07745	749.43127	-30.27251	516.45380	2.12216	1379.63293	-846.22455	
1763	17.620	-785.85553	59.27609	-625.19739	784.38953	59.86447	-630.30164	-693.84656	-27.46042	506.86093	748.36426	-29.73393	516.49603	0.91503	1378.40820	-848.52917	
1764	17.630	-786.91107	58.15505	-625.30933	783.15881	58.63079	-630.63531	-694.81085	-26.72768	506.63593	747.54138	-29.06574	516.36469	-0.11425	1377.23401	-850.97845	
1765	17.640	-787.56561	56.99899	-625.53979	782.16583	58.08051	-630.95709	-695.99060	-26.02985	506.51794	746.28894	-28.29929	516.14935	-1.00111	1376.05969	-853.39148	
1766	17.650	-788.95526	56.04391	-626.05481	781.06287	56.96414	-631.34216	-697.11743	-25.47585	506.32968	745.38617	-27.54854	516.00403	-1.93353	1374.65442	-855.81873	
1767	17.660	-790.15692	55.47693	-626.26410	780.15186	56.10481	-631.46875	-698.21832	-24.63550	506.06516	744.12201	-27.02470	515.95978	-3.30151	1373.44824	-858.11884	
1768	17.670	-791.01105	54.32946	-626.42969	778.80029	54.92054	-631.88556	-699.08716	-24.04440	505.97260	743.08295	-26.31636	515.66223	-4.52237	1372.12793	-860.30975	
1769	17.680	-792.13635	53.10131	-626.81854	777.65009	54.03699	-632.25732	-700.32764	-23.18644	505.77026	741.92340	-25.44784	515.46881	-5.39140	1370.66052	-862.38239	
1770	17.690	-793.31354	51.95625	-627.06561	776.62555	52.85082	-632.59937	-701.61792	-22.52510	505.37402	740.96381	-24.63282	515.27216	-6.05828	1369.19507	-864.63702	
1771	17.700	-794.48383	51.08383	-627.52142	775.53033	51.79217	-632.95038	-702.53485	-21.64580	505.35040	739.91901	-23.78365	515.13812	-7.59436	1367.68921	-866.60004	
1772	17.710	-795.52563	50.04855	-627.61481	774.62207	50.72925	-633.10345	-703.69452	-20.79507	504.94266	738.35480	-22.92170	514.96570	-9.07545	1366.14453	-868.88757	
1773	17.720	-796.60309	48.76828	-628.21222	773.26508	49.72580	-633.47821	-704.74786	-20.11899	504.81006	737.62408	-22.13330	514.54407	-9.91379	1364.91870	-871.30035	
1774	17.730	-797.70648	47.64459	-628.47076	772.34515	48.71365	-633.86261	-705.84546	-19.11878	504.72171	736.36493	-21.36954	514.25275	-10.88693	1363.16296	-874.04810	
1775	17.740	-799.07617	46.69069	-628.83521	771.17853	47.30633	-634.11035	-706.94714	-18.49238	504.53403	735.44824	-20.50603	514.06012	-12.42366	1361.68396	-876.86267	
1776	17.750	-800.25049	45.41027	-629.10071	769.76410	46.08317	-634.58435	-708.30267	-17.53666	504.26767	734.10364	-19.62239	513.87872	-13.11975	1359.89893	-880.08307	
1777	17.760	-800.90564	44.09492	-629.40985	768.75452	44.98996	-634.79816	-709.30560	-16.88008	504.15619	733.03210	-18.63993	513.83893	-14.35048	1358.21594	-883.14893	
1778	17.770	-802.12927	43.01473	-629.93585	767.75598	43.62534	-635.14893	-710.25708	-15.73338	503.91666	731.66119	-17.71459	513.21863	-15.51526	1356.74768	-886.54517	
1779	17.780	-803.53448	41.87393	-630.13049	766.64508	42.56802	-635.65308	-711.31403	-15.09846	503.68585	730.81207	-16.96517	513.18756	-16.41215	1355.02332	-889.19006	
1780	17.790	-804.76703	40.34986	-630.49866	765.49963	41.42626	-635.88611	-712.73389	-14.04209	503.36938	729.59985	-16.01734	512.88892	-17.59358	1353.28076	-891.83594	
1781	17.800	-805.78217	39.26962	-630.96686	764.26306	39.92247	-636.34259	-713.66254	-13.28426	503.12979	728.48969	-15.07726	512.68512	-18.69278	1351.49097	-894.60089	
1782	17.810	-806.62775	38.05488	-631.38367	763.16089	38.78660	-636.53503	-715.08051	-12.28954	502.78015	727.35944	-14.01586	512.65759	-20.26238	1349.76514	-896.99792	
1783	17.820	-808.03870	36.56313	-631.51776	762.06628	37.53418	-637.08380	-716.10315	-11.52520	502.58099	725.77472	-13.09454	512.36987	-21.38520	1348.13013	-899.27850	
1784	17.830	-809.34668	35.34260	-632.06036	760.80646	36.18735	-637.28125	-717.33765	-10.46657	502.04440	725.09387	-12.17659	512.02435	-22.19319	1345.92859	-901.97351	
1785	17.840	-810.23578	34.18865	-632.45227	759.61548	34.95494	-637.67419	-718.27496	-9.60427	501.94650	723.95642	-11.20083	511.69299	-23.52689	1344.29309	-904.95721	
1786	17.850	-811.32050	32.77267	-632.68866	758.65558	33.68592	-637.97076	-719.42468	-8.55318	501.53833	722.96631	-10.24905	511.48361	-24.93135	1342.40918	-907.90863	
1787	17.860	-812.74493	31.26088	-633.01520	757.36627	32.11650	-638.43817	-720.65369	-7.76123	501.32056	721.43640	-9.27326	511.43430	-25.91409	1340.65503	-911.51080	
1788	17.870	-813.73425	29.99592	-633.55389	756.26642	30.79530	-638.83301	-721.82727	-6.62280	500.95850	720.53326	-8.33965	510.87909	-26.74510	1338.50610	-914.67981	
1789	17.880	-814.82324	28.78128	-633.71033	755.26617	29.58108	-639.19141	-722.86774	-5.79843	500.81705	719.44269	-7.41415	510.55795	-28.00538	1336.64551	-917.98175	
1790	17.890	-815.62482	27.08549	-634.15192	754.00360	28.05281	-639.41168	-724.00671	-4.72811	500.48322	718.26208	-6.43290	510.25552	-29.28169	1334.68103	-921.53705	
1791	17.900	-817.13995	26.03344	-634.60364	752.78168	26.71890	-639.93427	-725.12933	-4.01882	500.29785	717.37622	-5.32686	509.96411	-30.05815	1332.67810	-924.83130	
